<svg xmlns="http://www.w3.org/2000/svg" xmlns:xlink="http://www.w3.org/1999/xlink" id="Layer_1" x="0" y="0" version="1.1" viewBox="0 0 1000 1000" xml:space="preserve" style="enable-background:new 0 0 1000 1000"><style type="text/css">.st0{fill:#fc5454}.st1{fill:#4ecdc4}.st2{fill:#ffe86b}.st3{fill:#c9d41b}</style><g><polygon points="314.6 100 314.6 223.7 283.6 223.7 283.6 100 113.6 100 113.6 471.1 283.6 471.1 283.6 347.4 314.6 347.4 314.6 471.1 484.7 471.1 484.7 100" class="st0"/></g><g><polygon points="515.7 471.1 701.2 100 886.7 471.1" class="st1"/></g><g><polygon points="515.3 884.5 515.3 513.5 886.4 513.5 778.2 699 886.4 884.5" class="st2"/></g><g><path d="M407.1,699l72.6-114.3c-36.2-52.4-96.8-86.7-165.4-86.7c-111,0-201,89.9-201,201s89.9,201,201,201 c68.6,0,129.1-34.3,165.4-86.7L407.1,699z" class="st3"/></g></svg>