<svg xmlns="http://www.w3.org/2000/svg" xmlns:xlink="http://www.w3.org/1999/xlink" id="Layer_1" x="0" y="0" version="1.1" viewBox="0 0 541 542" xml:space="preserve" style="enable-background:new 0 0 541 542"><style type="text/css">.st0,.st1{fill:none;stroke:#7fd4e8;stroke-width:12;stroke-miterlimit:10}.st1{stroke:#f76060}</style><title>hack_logo_glow</title><g><g id="Layer_1_1_"><g><image style="overflow:visible;opacity:.75" width="269" height="269" transform="matrix(1 0 0 1 7 0)" xlink:href="3E24D24CA81CEF07.png"/><g><polygon points="150.7 21.6 150.7 97 131.8 97 131.8 21.6 28.2 21.6 28.2 247.7 131.8 247.7 131.8 172.4 150.7 172.4 150.7 247.7 254.3 247.7 254.3 21.6" class="st0"/></g></g><g><image style="overflow:visible;opacity:.75" width="279" height="268" transform="matrix(1 0 0 1 262 1)" xlink:href="3E24D24CA81CEF05.png"/><g><polygon points="287.8 247.7 401.9 29.4 516 247.7" class="st1"/></g></g><g><image style="overflow:visible;opacity:.75" width="274" height="276" transform="matrix(1 0 0 1 267 264)" xlink:href="3E24D24CA81CEF0B.png"/><g><polygon points="288.8 518.3 288.9 285.4 515.1 285.4 449.2 398.5 515 518.3" class="st0"/></g></g><g><image style="overflow:visible;opacity:.75" width="277" height="286" transform="matrix(1 0 0 1 0 256)" xlink:href="3E24D24CA81CEF0D.png"/><g><path d="M211.9,398.5l42.4-60.8c-27.5-49.1-73.4-59.8-112.5-59.8C75.1,277.8,21,332.8,21,399.7 s54.1,121.2,120.8,121.2c41.2,0,79.4-14,112.5-59.8L211.9,398.5z" class="st1"/></g></g></g></g></svg>