<svg xmlns="http://www.w3.org/2000/svg" xmlns:xlink="http://www.w3.org/1999/xlink" id="Layer_1" x="0" y="0" version="1.1" viewBox="0 0 511 511.4" xml:space="preserve" style="enable-background:new 0 0 511 511.4"><style type="text/css">.st0{fill:none;stroke:#fff;stroke-width:12;stroke-miterlimit:10}</style><title>hack_logo</title><polygon points="135.7 6 135.7 81.4 116.8 81.4 116.8 6 13.2 6 13.2 232.1 116.8 232.1 116.8 156.8 135.7 156.8 135.7 232.1 239.3 232.1 239.3 6" class="st0"/><polygon points="272.8 232.1 386.9 13.8 501 232.1" class="st0"/><polygon points="273.8 502.7 273.9 269.8 500.1 269.8 434.2 382.9 500 502.7" class="st0"/><path d="M196.9,382.9l42.4-60.8c-27.5-49.1-73.4-59.8-112.5-59.8C60.1,262.2,6,317.2,6,384.1s54.1,121.2,120.8,121.2	c41.2,0,79.4-14,112.5-59.8L196.9,382.9z" class="st0"/></svg>