<svg xmlns="http://www.w3.org/2000/svg" xmlns:xlink="http://www.w3.org/1999/xlink" id="Layer_1" x="0" y="0" version="1.1" viewBox="0 0 1062 471.5" xml:space="preserve" style="enable-background:new 0 0 1062 471.5"><style type="text/css">.st0{fill:#b9f734}.st1{fill:#180724}.st2,.st3{enable-background:new;fill:none;stroke-linecap:round;stroke-linejoin:round}.st2{opacity:.2;stroke:#b2d339;stroke-width:10}.st3{opacity:.25;stroke-width:8.5}.st3,.st4,.st5{stroke:#b2d339}.st4,.st5,.st6{fill:none;stroke-linecap:round;stroke-linejoin:round}.st4{opacity:.3;stroke-width:5;enable-background:new}.st5{stroke-width:7}.st6{stroke:#c3db69;stroke-width:5.5}.st7{stroke:#d2e392;stroke-width:4}.st7,.st8,.st9{fill:none;stroke-linecap:round;stroke-linejoin:round}.st8{stroke:#deebb1;stroke-width:2.5}.st9{stroke:#eaf2ce}</style><title>sign</title><g id="Layer_2_1_"><g id="Layer_1-2"><path d="M50.2,113h971.6c22.2,0,40.2,18,40.2,40.2v278.1c0,22.2-18,40.2-40.2,40.2H50.2c-22.2,0-40.2-18-40.2-40.2 V153.2C10,131,28,113,50.2,113z" class="st0"/><path d="M40.2,100h971.6c22.2,0,40.2,18,40.2,40.2v278.1c0,22.2-18,40.2-40.2,40.2H40.2C18,458.5,0,440.5,0,418.3 V140.2C0,118,18,100,40.2,100z" class="st1"/><line x1="33" x2="32.5" y1="5.5" y2="127" class="st2"/><line x1="33" x2="32.5" y1="5.5" y2="127" class="st3"/><line x1="33" x2="32.5" y1="5.5" y2="127" class="st4"/><line x1="33" x2="32.5" y1="5.5" y2="127" class="st5"/><line x1="33" x2="32.5" y1="5.5" y2="127" class="st6"/><line x1="33" x2="32.5" y1="5.5" y2="127" class="st7"/><line x1="33" x2="32.5" y1="5.5" y2="127" class="st8"/><line x1="33" x2="32.5" y1="5.5" y2="127" class="st9"/><line x1="1019.5" x2="1019.5" y1="5" y2="126" class="st2"/><line x1="1019.5" x2="1019.5" y1="5" y2="126" class="st3"/><line x1="1019.5" x2="1019.5" y1="5" y2="126" class="st4"/><line x1="1019.5" x2="1019.5" y1="5" y2="126" class="st5"/><line x1="1019.5" x2="1019.5" y1="5" y2="126" class="st6"/><line x1="1019.5" x2="1019.5" y1="5" y2="126" class="st7"/><line x1="1019.5" x2="1019.5" y1="5" y2="126" class="st8"/><line x1="1019.5" x2="1019.5" y1="5" y2="126" class="st9"/></g></g></svg>